<?xml version="1.0" encoding="UTF-8" standalone="no"?>
<!-- Created with Inkscape (http://www.inkscape.org/) -->

<svg
   xmlns:dc="http://purl.org/dc/elements/1.1/"
   xmlns:cc="http://creativecommons.org/ns#"
   xmlns:rdf="http://www.w3.org/1999/02/22-rdf-syntax-ns#"
   xmlns:svg="http://www.w3.org/2000/svg"
   xmlns="http://www.w3.org/2000/svg"
   xmlns:sodipodi="http://sodipodi.sourceforge.net/DTD/sodipodi-0.dtd"
   xmlns:inkscape="http://www.inkscape.org/namespaces/inkscape"
   width="72.55793mm"
   height="50.942669mm"
   viewBox="0 0 72.55793 50.942669"
   version="1.1"
   id="svg8"
   inkscape:version="0.92.2 (5c3e80d, 2017-08-06)"
   sodipodi:docname="error.svg"
   inkscape:export-filename="S:\q-programming\gifts-hub-logo.png"
   inkscape:export-xdpi="96"
   inkscape:export-ydpi="96">
  <defs
     id="defs2" />
  <sodipodi:namedview
     id="base"
     pagecolor="#ffffff"
     bordercolor="#666666"
     borderopacity="1.0"
     inkscape:pageopacity="0.0"
     inkscape:pageshadow="2"
     inkscape:zoom="2.8"
     inkscape:cx="106.08642"
     inkscape:cy="101.55912"
     inkscape:document-units="mm"
     inkscape:current-layer="layer1"
     showgrid="false"
     inkscape:window-width="1920"
     inkscape:window-height="1027"
     inkscape:window-x="-8"
     inkscape:window-y="-8"
     inkscape:window-maximized="1"
     fit-margin-top="0"
     fit-margin-left="0"
     fit-margin-right="0"
     fit-margin-bottom="0" />
  <metadata
     id="metadata5">
    <rdf:RDF>
      <cc:Work
         rdf:about="">
        <dc:format>image/svg+xml</dc:format>
        <dc:type
           rdf:resource="http://purl.org/dc/dcmitype/StillImage" />
        <dc:title></dc:title>
      </cc:Work>
    </rdf:RDF>
  </metadata>
  <g
     inkscape:label="Layer 1"
     inkscape:groupmode="layer"
     id="layer1"
     transform="translate(5.8859451,7.339194)">
    <path
       style="fill:#d35f5f;fill-opacity:1;stroke:#000000;stroke-width:0;stroke-linecap:butt;stroke-linejoin:miter;stroke-miterlimit:4;stroke-dasharray:none;stroke-opacity:1"
       d="m 10.391124,37.640892 c 1.268203,-2.424415 2.947589,-8.451976 7.430942,-7.920205 0.934613,0.406959 2.431367,2.310665 2.559455,2.729433 -0.133975,3.191842 -5.367483,6.221392 -5.367483,6.221392 l -3.774812,0.988926 z"
       id="path4529"
       inkscape:connector-curvature="0"
       sodipodi:nodetypes="cccccc" />
    <path
       style="fill:#c83737;fill-opacity:1;stroke:#000000;stroke-width:0;stroke-linecap:butt;stroke-linejoin:miter;stroke-miterlimit:4;stroke-dasharray:none;stroke-opacity:1"
       d="m 11.715051,39.107387 c 0,0 4.028587,-6.011228 7.548549,-6.358826 -0.820839,3.258607 -6.187276,6.229738 -6.187276,6.229738 l -0.890021,0.495199 z"
       id="path4531"
       inkscape:connector-curvature="0"
       sodipodi:nodetypes="ccccc" />
    <path
       style="fill:#d35f5f;fill-opacity:1;stroke:#000000;stroke-width:0;stroke-linecap:butt;stroke-linejoin:miter;stroke-miterlimit:4;stroke-dasharray:none;stroke-opacity:1"
       d="M 8.0762727,37.979154 C 5.5258515,36.988465 0.29448771,33.555579 -2.7310467,36.906605 c -0.4358365,0.921503 -0.309844,3.339866 -0.1306768,3.739455 2.20153717,2.314961 8.1356959,1.151551 8.1356959,1.151551 l 3.2710815,-2.070225 z"
       id="path4529-0"
       inkscape:connector-curvature="0"
       sodipodi:nodetypes="cccccc" />
    <path
       style="fill:#c83737;fill-opacity:1;stroke:#000000;stroke-width:0;stroke-linecap:butt;stroke-linejoin:miter;stroke-miterlimit:4;stroke-dasharray:none;stroke-opacity:1"
       d="m 7.6594518,40.480407 c 0,0 -6.90504372,-2.164428 -9.8672079,-0.231409 2.68039911,2.026762 8.7249949,0.983126 8.7249949,0.983126 l 1.0040237,-0.171182 z"
       id="path4531-8"
       inkscape:connector-curvature="0"
       sodipodi:nodetypes="ccccc" />
    <ellipse
       style="fill:#c83737;fill-opacity:1;stroke:#ffffff;stroke-width:0;stroke-linejoin:round;stroke-miterlimit:4;stroke-dasharray:none"
       id="path4527"
       cx="-3.3504248"
       cy="40.630688"
       rx="2.465986"
       ry="2.0833333"
       transform="rotate(-18.171225)" />
    <path
       style="fill:#244981;fill-opacity:1;stroke:none;stroke-width:0.26458332px;stroke-linecap:butt;stroke-linejoin:miter;stroke-opacity:1"
       d="m 35.809913,41.61145 4.558153,-3.964001 -5.694455,-0.425225 -0.944941,4.252233 z"
       id="path878"
       inkscape:connector-curvature="0"
       sodipodi:nodetypes="ccccc" />
    <rect
       style="fill:#244981;fill-opacity:1;stroke:#23487f;stroke-width:2.20033908;stroke-linejoin:round;stroke-miterlimit:4;stroke-dasharray:none;stroke-opacity:1"
       id="rect4487-9"
       width="20.49758"
       height="20.407389"
       x="18.991415"
       y="16.624186" />
    <path
       style="fill:#162c4e;fill-opacity:1;stroke:none;stroke-width:0.26458332px;stroke-linecap:butt;stroke-linejoin:miter;stroke-opacity:1"
       d="m 13.675155,19.769707 c 0,0 4.483388,-4.123529 4.927638,-4.168676 -0.08137,3.13812 0,0 -0.06418,3.725722 z"
       id="path880"
       inkscape:connector-curvature="0"
       sodipodi:nodetypes="cccc" />
    <path
       style="fill:#d35f5f;fill-opacity:1;stroke:none;stroke-width:0.26458332px;stroke-linecap:butt;stroke-linejoin:miter;stroke-opacity:1"
       d="m 11.486889,42.914792 c 0.868626,-0.467723 9.491567,-4.90561 14.633006,-4.877668 5.184003,0.02817 9.600441,4.144859 14.699824,5.078121 3.726068,0.681926 6.714835,0.647627 10.697496,-0.09114 0.695493,-0.517436 2.113473,-0.591738 4.009043,-2.884613 l -2.687517,-0.03636 c -2.330502,0.807133 -1.276832,0.429858 -2.330502,0.807133 -3.024167,1.082828 -6.472695,0.09938 -9.621702,-0.53454 -4.820419,-0.970383 -8.984774,-4.749175 -13.898015,-4.944486 -5.431461,-0.21591 -10.764919,2.43917 -15.749296,4.229193 0.247663,3.254354 0.471252,0.366112 0.247663,3.254354 z"
       id="path900"
       inkscape:connector-curvature="0"
       sodipodi:nodetypes="ccccccccccc" />
    <rect
       style="fill:#2c5aa0;fill-opacity:1;stroke:#2c5aa0;stroke-width:2.20033908;stroke-linejoin:round;stroke-miterlimit:4;stroke-dasharray:none;stroke-opacity:1"
       id="rect4487"
       width="20.49758"
       height="20.407389"
       x="14.569571"
       y="20.454433" />
    <path
       style="fill:#162c4e;fill-opacity:1;stroke:none;stroke-width:0.26458332px;stroke-linecap:butt;stroke-linejoin:miter;stroke-opacity:1"
       d="m 36.159737,20.283162 c -0.135272,-0.459654 -0.07904,-0.426583 -0.365445,-0.649224 -0.286408,-0.222641 4.368299,-3.880425 4.368299,-3.880425 0,0 0.354177,0.209417 0.410631,0.727535 0.05645,0.518118 -0.205156,21.166401 -0.205156,21.166401 l -4.315942,3.763549 c 0,0 0.209477,-16.959818 0.107613,-21.127836 z"
       id="path882"
       inkscape:connector-curvature="0"
       sodipodi:nodetypes="czczccc" />
    <path
       style="fill:#2c5aa0;fill-opacity:1;stroke:none;stroke-width:0.26458332px;stroke-linecap:butt;stroke-linejoin:miter;stroke-opacity:1"
       d="m 37.516758,20.525462 2.534143,-0.625183 6.395545,20.516179 -2.114653,0.799842 z"
       id="path893"
       inkscape:connector-curvature="0"
       sodipodi:nodetypes="ccccc" />
    <path
       style="fill:#23487f;fill-opacity:1;stroke:none;stroke-width:0.26458332px;stroke-linecap:butt;stroke-linejoin:miter;stroke-opacity:1"
       d="m 37.516756,20.525462 2.645835,-4.771949 2.445629,-0.879433 -2.557319,5.026199 z"
       id="path895"
       inkscape:connector-curvature="0"
       sodipodi:nodetypes="ccccc" />
    <path
       style="fill:#162c4e;fill-opacity:1;stroke:none;stroke-width:0.26458332px;stroke-linecap:butt;stroke-linejoin:miter;stroke-opacity:1"
       d="m 42.60822,14.87408 6.058834,19.967231 -2.220608,5.575147 -6.395545,-20.516179 z"
       id="path897"
       inkscape:connector-curvature="0"
       sodipodi:nodetypes="ccccc" />
    <path
       style="fill:none;stroke:#000000;stroke-width:0.76499999;stroke-linecap:round;stroke-linejoin:miter;stroke-miterlimit:4;stroke-dasharray:none;stroke-opacity:0.04545456"
       d="M -5.4984868,11.013358 7.6857957,17.038619"
       id="path910"
       inkscape:connector-curvature="0"
       inkscape:transform-center-x="0.22605614"
       inkscape:transform-center-y="-0.14259002" />
    <path
       style="fill:none;stroke:#000000;stroke-width:0.76499999;stroke-linecap:round;stroke-linejoin:miter;stroke-miterlimit:4;stroke-dasharray:none;stroke-opacity:0.04545456"
       d="M 7.4618241,-2.9820915 13.131467,7.5067476"
       id="path912"
       inkscape:connector-curvature="0" />
    <path
       style="fill:none;stroke:#000000;stroke-width:0.70403081;stroke-linecap:round;stroke-linejoin:miter;stroke-miterlimit:4;stroke-dasharray:none;stroke-opacity:0.04545456"
       d="M 24.345264,-6.9821709 24.974218,5.9316785"
       id="path914"
       inkscape:connector-curvature="0" />
    <path
       style="fill:none;stroke:#000000;stroke-width:0.6543234;stroke-linecap:round;stroke-linejoin:miter;stroke-miterlimit:4;stroke-dasharray:none;stroke-opacity:0.04545456"
       d="M 39.456495,-7.0070645 C 39.282872,-6.4050811 35.376364,5.4840917 35.376364,5.4840917"
       id="path916"
       inkscape:connector-curvature="0" />
    <path
       style="fill:none;stroke:#000000;stroke-width:0.76499999;stroke-linecap:round;stroke-linejoin:miter;stroke-miterlimit:4;stroke-dasharray:none;stroke-opacity:0.04545456"
       d="M 56.073919,-2.0042438 44.461337,8.9857452"
       id="path918"
       inkscape:connector-curvature="0" />
    <path
       style="fill:none;stroke:#000000;stroke-width:0.76499999;stroke-linecap:round;stroke-linejoin:miter;stroke-miterlimit:4;stroke-dasharray:none;stroke-opacity:0.04545456"
       d="M 66.2842,12.917701 50.50403,16.836866"
       id="path920"
       inkscape:connector-curvature="0" />
    <path
       style="fill:none;stroke:#000000;stroke-width:0.76499999;stroke-linecap:round;stroke-linejoin:miter;stroke-miterlimit:4;stroke-dasharray:none;stroke-opacity:0.04545456"
       d="M 64.63072,32.54767 C 64.34724,32.169694 53.007953,29.145885 53.007953,29.145885"
       id="path922"
       inkscape:connector-curvature="0" />
    <path
       style="fill:none;stroke:#000000;stroke-width:0.76499999;stroke-linecap:round;stroke-linejoin:miter;stroke-miterlimit:4;stroke-dasharray:none;stroke-opacity:0.04545456"
       d="M -5.1058843,30.185319 8.690246,27.350497"
       id="path924"
       inkscape:connector-curvature="0" />
  </g>
</svg>
